<svg  viewBox="0 0 24 17" fill="none" xmlns="http://www.w3.org/2000/svg">
<path d="M20.0961 2.05679C18.1568 0.498386 15.0904 0.234386 14.9608 0.223186C14.756 0.205586 14.5616 0.321586 14.4776 0.508786C14.4744 0.515186 14.3032 1.01199 14.1376 1.49119C16.3912 1.88559 17.9224 2.76079 18.004 2.80879C18.3864 3.03119 18.5145 3.52159 18.2913 3.90319C18.1432 4.15759 17.8752 4.29999 17.6 4.29999C17.4632 4.29999 17.3256 4.26559 17.1992 4.19199C17.1768 4.17839 14.9304 2.89999 12.0016 2.89999C9.07205 2.89999 6.82485 4.17919 6.80245 4.19199C6.42085 4.41359 5.93125 4.28319 5.70965 3.90079C5.48805 3.51999 5.61685 3.03119 5.99765 2.80879C6.07925 2.76079 7.61605 1.88239 9.87605 1.48879C9.70165 1.00399 9.52565 0.515186 9.52245 0.508786C9.43845 0.320786 9.24405 0.202386 9.03925 0.223186C8.90965 0.233586 5.84325 0.497586 3.87845 2.07759C2.85125 3.02639 0.800049 8.57359 0.800049 13.3696C0.800049 13.4544 0.821649 13.5368 0.864049 13.6104C2.28085 16.0984 6.14325 16.7496 7.02325 16.7776C7.02885 16.7784 7.03365 16.7784 7.03845 16.7784C7.19365 16.7784 7.34005 16.704 7.43205 16.5784L8.38405 15.2888C6.29605 14.7856 5.19205 13.9944 5.12565 13.9456C4.77045 13.684 4.69365 13.1832 4.95525 12.8272C5.21605 12.4728 5.71525 12.3944 6.07045 12.6544C6.10005 12.6736 8.13765 14.1 12 14.1C15.8776 14.1 17.9096 12.668 17.9296 12.6536C18.2848 12.396 18.7856 12.4736 19.0456 12.8304C19.3048 13.1856 19.2296 13.6832 18.876 13.944C18.8096 13.9928 17.7112 14.7824 15.628 15.2856L16.568 16.5776C16.66 16.704 16.8064 16.7776 16.9616 16.7776C16.9672 16.7776 16.972 16.7776 16.9769 16.7768C17.8576 16.7488 21.72 16.0976 23.136 13.6096C23.1784 13.536 23.2 13.4536 23.2 13.3688C23.2 8.57359 21.1488 3.02639 20.0961 2.05679ZM8.80005 11.7C7.91605 11.7 7.20005 10.8048 7.20005 9.69999C7.20005 8.59519 7.91605 7.69999 8.80005 7.69999C9.68405 7.69999 10.4 8.59519 10.4 9.69999C10.4 10.8048 9.68405 11.7 8.80005 11.7ZM15.2 11.7C14.316 11.7 13.6 10.8048 13.6 9.69999C13.6 8.59519 14.316 7.69999 15.2 7.69999C16.084 7.69999 16.8 8.59519 16.8 9.69999C16.8 10.8048 16.084 11.7 15.2 11.7Z" fill="#9992B9"/>
</svg>
