<svg width="24" height="21" viewBox="0 0 24 21" fill="none" xmlns="http://www.w3.org/2000/svg">
<path fill-rule="evenodd" clip-rule="evenodd" d="M12.001 2.30781C13.1996 1.28364 14.6171 0.481822 16.1183 0.189959C17.9807 -0.172137 19.9135 0.268577 21.547 1.90271C23.2376 3.59268 23.7594 5.47132 23.4226 7.3663C23.1 9.1809 22.0098 10.9064 20.7169 12.4442C19.4122 13.9961 17.8166 15.4539 16.3553 16.7244C15.9145 17.1077 15.4905 17.4703 15.0899 17.8128C14.1314 18.6324 13.307 19.3373 12.7072 19.9371C12.3167 20.3276 11.6835 20.3276 11.293 19.9371C10.7355 19.3796 9.95995 18.7134 9.0487 17.9306C8.6309 17.5716 8.18457 17.1882 7.71768 16.7796C6.26791 15.5106 4.67465 14.0425 3.36516 12.4778C2.06766 10.9273 0.967841 9.1885 0.628757 7.3702C0.274685 5.47152 0.770521 3.58534 2.45298 1.90288C4.1138 0.242066 6.05237 -0.198402 7.91669 0.176498C9.41261 0.477316 10.816 1.29014 12.001 2.30781Z" fill="#D00683"/>
</svg>
