<svg width="164" height="30" viewBox="0 0 164 30" fill="none" xmlns="http://www.w3.org/2000/svg">
<path d="M60.7408 21.1766V15.9979H54.4435V21.1766H52.0199V8.35413H54.4435V13.7607H60.7408V8.35413H63.123V21.1766H60.7408Z" fill="#9992B9"/>
<path d="M74.2056 16.6608C74.2056 19.2708 72.4241 21.363 69.5033 21.363C66.5825 21.363 64.8218 19.2501 64.8218 16.6608C64.8218 14.0714 66.624 11.9585 69.4826 11.9585C72.362 11.9585 74.2056 14.0714 74.2056 16.6608ZM67.0383 16.6608C67.0383 18.0279 67.8669 19.3123 69.4826 19.3123C71.1191 19.3123 71.927 18.0279 71.927 16.6608C71.927 15.3143 70.9741 13.9885 69.4826 13.9885C67.8876 13.9885 67.0383 15.3143 67.0383 16.6608Z" fill="#9992B9"/>
<path d="M82.9057 12.1448H85.0394V21.1765H82.9264L82.8229 19.8507C82.305 20.9072 80.8964 21.425 79.9021 21.4458C77.2299 21.4665 75.262 19.8093 75.262 16.6399C75.262 13.5327 77.3334 11.8962 79.9642 11.9169C81.1657 11.9169 82.3257 12.4762 82.8436 13.3877L82.9057 12.1448ZM77.4784 16.6399C77.4784 18.3593 78.6592 19.395 80.1507 19.395C83.6722 19.395 83.6722 13.9263 80.1507 13.9263C78.6799 13.9056 77.4784 14.9206 77.4784 16.6399Z" fill="#9992B9"/>
<path d="M88.9959 12.1448L89.1616 13.1806C89.8659 12.062 90.7981 11.8962 91.7095 11.8962C92.6417 11.8962 93.5324 12.2691 94.0296 12.7663L93.0146 14.7135C92.5588 14.3199 92.1445 14.1334 91.3988 14.1334C90.2181 14.1334 89.1409 14.7549 89.1409 16.4121V21.1765H86.9037V12.1448H88.9959Z" fill="#9992B9"/>
<path d="M104.242 8.37488V21.1766H102.15L102.005 19.9337C101.3 21.0109 100.203 21.3838 99.084 21.3838C96.4325 21.3838 94.4438 19.623 94.4438 16.6608C94.4438 13.5536 96.4118 11.9378 99.0425 11.9378C99.9954 11.9378 101.487 12.4557 102.005 13.3879V8.39559H104.242V8.37488ZM96.681 16.6401C96.681 18.2144 97.8204 19.2916 99.2497 19.2916C100.658 19.2916 101.86 18.2766 101.86 16.6401C101.86 15.0658 100.658 14.0093 99.2497 14.0093C97.8204 14.0093 96.681 15.0036 96.681 16.6401Z" fill="#9992B9"/>
<path d="M108.281 17.4479C108.426 18.5665 109.4 19.3744 110.974 19.3744C111.803 19.3744 112.88 19.0637 113.398 18.5251L114.827 19.9337C113.874 20.928 112.321 21.4044 110.954 21.4044C107.846 21.4044 106.003 19.4779 106.003 16.5986C106.003 13.8435 107.867 11.8756 110.809 11.8756C113.833 11.8756 115.718 13.7399 115.366 17.4686H108.281V17.4479ZM113.191 15.6043C113.046 14.4235 112.134 13.8435 110.85 13.8435C109.648 13.8435 108.654 14.4235 108.323 15.6043H113.191Z" fill="#9992B9"/>
<path d="M119.115 12.1448L119.281 13.1806C119.985 12.062 120.917 11.8962 121.829 11.8962C122.761 11.8962 123.652 12.2691 124.149 12.7663L123.134 14.7135C122.678 14.3199 122.264 14.1334 121.518 14.1334C120.337 14.1334 119.26 14.7549 119.26 16.4121V21.1765H117.023V12.1448H119.115Z" fill="#9992B9"/>
<path d="M133.595 8.33337H136.019V21.1559H134.527V21.1766L127.795 12.5178V21.1559H125.371V8.33337H127.339L133.616 16.2879V8.33337H133.595Z" fill="#9992B9"/>
<path d="M139.954 17.4479C140.099 18.5665 141.073 19.3744 142.647 19.3744C143.476 19.3744 144.553 19.0637 145.071 18.5251L146.5 19.9337C145.547 20.928 143.994 21.4044 142.627 21.4044C139.519 21.4044 137.676 19.4779 137.676 16.5986C137.676 13.8435 139.54 11.8756 142.482 11.8756C145.506 11.8756 147.391 13.7399 147.039 17.4686H139.954V17.4479ZM144.864 15.6043C144.719 14.4235 143.807 13.8435 142.523 13.8435C141.322 13.8435 140.327 14.4235 139.996 15.6043H144.864Z" fill="#9992B9"/>
<path d="M154.62 14.5271C153.978 13.9264 153.253 13.7192 152.383 13.7192C151.327 13.7192 150.726 14.0507 150.726 14.61C150.726 15.19 151.265 15.5214 152.404 15.6043C154.102 15.7079 156.257 16.1014 156.257 18.5044C156.257 20.0994 154.952 21.4666 152.383 21.4666C150.954 21.4666 149.525 21.2387 148.219 19.8508L149.317 18.2558C149.96 18.9601 151.43 19.4987 152.425 19.5194C153.274 19.5401 154.061 19.1051 154.061 18.4422C154.061 17.8208 153.543 17.5722 152.259 17.4893C150.56 17.365 148.53 16.7436 148.53 14.6928C148.53 12.6006 150.685 11.8756 152.342 11.8756C153.75 11.8756 154.807 12.1449 155.863 13.0564L154.62 14.5271Z" fill="#9992B9"/>
<path d="M160.856 9.59705V12.1657H163.341V14.0922H160.835V17.9865C160.835 18.8566 161.311 19.2709 162.016 19.2709C162.368 19.2709 162.761 19.1673 163.093 19.0016L163.714 20.9073C163.072 21.1559 162.534 21.2802 161.871 21.3009C159.903 21.3838 158.639 20.2652 158.639 18.0073V14.1129H156.961V12.1864H158.639V9.86634L160.856 9.59705Z" fill="#9992B9"/>
<path d="M41.4589 7.82287C40.2261 7.85595 39.2529 8.89779 39.2854 10.1546C39.3016 10.6507 39.4638 11.1138 39.7395 11.4776C39.5773 11.9076 39.3665 12.4202 39.107 12.9659C37.4688 13.7101 35.6359 14.2724 33.7706 14.6858L31.5809 13.0155C31.6134 12.8998 31.6134 12.7675 31.6134 12.6517C31.5972 11.7753 30.8835 11.0807 30.0076 11.0972C29.1479 11.1138 28.4667 11.8579 28.4829 12.7344C28.4992 13.6109 29.229 14.3054 30.0887 14.2889C30.332 14.2889 30.5429 14.2228 30.7375 14.1235L31.9702 15.0662C27.2827 15.893 22.5789 15.9426 19.9999 15.8765C19.6269 15.1158 18.8483 14.5866 17.94 14.6196C16.7073 14.6527 15.7341 15.6946 15.7665 16.9514C15.799 18.2082 16.8208 19.2004 18.0535 19.1674C18.8159 19.1508 19.4971 18.7209 19.8702 18.109C20.8596 18.1421 22.1409 18.1586 23.6332 18.109C24.6713 18.0759 25.8066 18.0263 27.0069 17.9271L25.3201 19.7792C25.2065 19.7462 25.0768 19.7462 24.9632 19.7462C24.1036 19.7627 23.4223 20.5069 23.4385 21.3833C23.4548 22.2598 24.1847 22.9544 25.0443 22.9378C25.904 22.9213 26.5852 22.1771 26.569 21.3007C26.569 21.0691 26.5041 20.8376 26.4068 20.6392L29.0506 17.7286C31.7431 17.431 34.6303 16.9018 37.2903 16.0418C35.9927 17.8609 34.1761 19.7627 31.6296 21.3172C26.5852 24.3931 20.373 24.6246 15.4259 21.8795C14.3067 21.2676 13.3173 20.5399 12.4577 19.7627L9.50565 16.1907C7.70524 13.2967 6.95913 10.3365 6.66717 8.66627C7.47816 8.91433 8.82442 9.29468 10.5599 9.67504C11.2574 9.82387 12.036 9.98924 12.8632 10.1215C15.8801 10.6507 19.6431 11.0642 23.7305 10.9484C25.5796 10.8988 27.4935 10.75 29.4399 10.4357C30.186 10.32 30.9321 10.1877 31.6783 10.0223C33.4138 9.6585 35.1493 9.16239 36.8848 8.51744L37.2092 8.40168L39.8855 4.54852C39.9666 4.54852 40.0477 4.54852 40.1126 4.54852C41.3453 4.51545 42.3185 3.4736 42.2861 2.21678C42.2536 0.959957 41.2318 -0.0322709 39.9991 0.000803406C38.7663 0.0338777 37.7932 1.07572 37.8256 2.33254C37.8418 2.67982 37.9229 3.01057 38.0689 3.30823L35.8305 6.54952C34.1275 7.16139 32.3919 7.62443 30.6726 7.95517L28.9533 4.43276C29.2777 4.01933 29.4561 3.50668 29.4561 2.94441C29.4237 1.68759 28.4018 0.695363 27.1691 0.728437C25.9364 0.761511 24.9632 1.80335 24.9957 3.06018C25.0281 4.1847 25.8553 5.11078 26.9258 5.25962L28.4181 8.33553C23.1628 9.04663 18.1184 8.66627 14.1932 8.05439L16.0098 5.21001C16.0585 5.21001 16.0909 5.21001 16.1396 5.21001C17.3723 5.17693 18.3455 4.13509 18.3131 2.87827C18.2806 1.62144 17.2588 0.629215 16.0261 0.662289C14.7933 0.695364 13.8201 1.73721 13.8526 2.99403C13.8688 3.37438 13.9661 3.7382 14.1445 4.06894L11.8575 7.64096C9.22991 7.12831 7.38084 6.56605 6.73204 6.36761L4.31528 3.67205C4.4126 3.40745 4.46126 3.10979 4.46126 2.81212C4.42882 1.5553 3.40697 0.563065 2.17425 0.596139C0.941541 0.629214 -0.0316518 1.67105 0.000787994 2.92788C0.0332278 4.1847 1.05508 5.17693 2.28779 5.14386C2.41755 5.14386 2.5311 5.12732 2.64463 5.11078L4.70455 7.40945L4.29906 7.42598C4.31528 7.67404 4.52614 10.8161 6.09947 14.4874L4.737 13.7928C4.6559 12.5856 3.65027 11.643 2.44999 11.676C1.21728 11.7091 0.244084 12.7509 0.276523 14.0078C0.308963 15.2646 1.33082 16.2568 2.56354 16.2238C3.01769 16.2072 3.43941 16.0584 3.79624 15.8103L7.94853 17.9271C9.42455 20.1431 11.4845 22.2929 14.3878 23.8804C15.0853 24.2773 15.8152 24.6081 16.5613 24.8892C14.2581 25.2861 12.4577 25.7988 11.2087 26.2122C10.787 25.7326 10.1707 25.4184 9.48942 25.4515C8.25671 25.4846 7.28352 26.5264 7.31596 27.7832C7.3484 29.04 8.37025 30.0323 9.60297 29.9992C10.5762 29.9661 11.3872 29.3212 11.6629 28.4282C14.9718 27.3202 23.7143 25.1207 35.6683 27.7667C35.9927 28.6597 36.8362 29.2716 37.8094 29.255C39.0421 29.2219 40.0153 28.1801 39.9828 26.9233C39.9504 25.6665 38.9285 24.6742 37.6958 24.7073C37.0146 24.7238 36.3982 25.0546 36.009 25.5672C33.9653 25.1207 32.0189 24.8065 30.186 24.5915C31.0619 24.2277 31.9216 23.7812 32.7488 23.2851C38.2311 19.9446 40.6965 15.1984 41.7346 12.4367C42.87 12.3044 43.7459 11.3122 43.7134 10.1215C43.7134 8.78203 42.6916 7.7898 41.4589 7.82287ZM30.04 12.0068C30.0887 12.0068 30.1536 12.0068 30.2022 12.0233C30.2671 12.0398 30.332 12.0564 30.3969 12.0895C30.4455 12.1225 30.478 12.1391 30.5104 12.1887C30.6402 12.3044 30.7051 12.4698 30.7213 12.6517C30.7375 13.0155 30.4455 13.3297 30.0725 13.3463C29.813 13.3463 29.6021 13.214 29.4886 12.999C29.4399 12.9163 29.4075 12.8006 29.4075 12.6848C29.3913 12.321 29.6832 12.0068 30.04 12.0068ZM17.0803 16.8852C17.0641 16.3726 17.4534 15.9261 17.9724 15.9095C17.9887 15.9095 17.9887 15.9095 18.0049 15.9095C18.5239 15.893 18.9456 16.3064 18.9619 16.8356C18.9781 17.3648 18.5726 17.7948 18.0535 17.8113C17.9724 17.8113 17.9076 17.8113 17.8427 17.7948C17.421 17.7121 17.0966 17.3483 17.0803 16.8852ZM25.0443 21.9952C24.6875 22.0118 24.3793 21.7141 24.3631 21.3337C24.3631 21.2014 24.3955 21.0857 24.4442 20.9864C24.5577 20.788 24.7524 20.6557 24.9957 20.6557C25.3525 20.6392 25.6607 20.9368 25.6769 21.3172C25.6769 21.3668 25.6769 21.4164 25.6607 21.466C25.612 21.7472 25.3525 21.9787 25.0443 21.9952ZM40.0477 1.30724C40.5668 1.2907 40.9885 1.70413 41.0047 2.24986V2.26639C41.0047 2.77904 40.5992 3.20901 40.0964 3.22555C39.5773 3.24209 39.1394 2.82866 39.1394 2.29947C39.1232 1.8695 39.3989 1.50568 39.772 1.37338C39.8531 1.34031 39.9504 1.30724 40.0477 1.30724ZM26.423 3.44053C26.3581 3.30823 26.3095 3.17593 26.3095 3.01056C26.2932 2.48137 26.6987 2.03487 27.2178 2.03487C27.6395 2.01833 27.9963 2.29946 28.1261 2.67982C28.1585 2.7625 28.1748 2.86173 28.1748 2.96095C28.191 3.49014 27.7855 3.92011 27.2664 3.93664C26.8934 3.95318 26.5852 3.7382 26.423 3.44053ZM16.0747 1.95219C16.5937 1.93565 17.0155 2.34908 17.0317 2.8948C17.0317 2.91134 17.0317 2.92788 17.0317 2.94441C17.0155 3.44053 16.6262 3.85396 16.1234 3.8705C15.6043 3.88703 15.1664 3.4736 15.1664 2.94441C15.1502 2.54752 15.3773 2.21678 15.7017 2.05141C15.8152 1.98526 15.945 1.95219 16.0747 1.95219ZM2.27157 3.78781C1.84985 3.80435 1.49302 3.52322 1.36326 3.14286C1.33082 3.06018 1.3146 2.96095 1.3146 2.86173C1.29838 2.33254 1.70387 1.88604 2.22291 1.88604C2.36889 1.88604 2.51487 1.91911 2.62841 1.96872C2.95281 2.11756 3.16367 2.43176 3.17989 2.81212C3.19611 3.32477 2.79061 3.77127 2.27157 3.78781ZM1.59034 13.9085C1.57412 13.3794 1.97961 12.9329 2.49865 12.9329C2.66085 12.9329 2.80683 12.9659 2.93659 13.0321C3.22855 13.1809 3.43941 13.4951 3.45563 13.8589C3.47185 14.3881 3.06635 14.8181 2.54731 14.8346C2.38511 14.8346 2.23913 14.8016 2.10937 14.7354C1.81741 14.5866 1.60656 14.2724 1.59034 13.9085ZM9.60297 28.5935C9.08393 28.6101 8.646 28.1966 8.646 27.6675C8.62978 27.1383 9.03527 26.6918 9.55431 26.6918C9.61919 26.6918 9.66784 26.6918 9.73272 26.7083C10.1707 26.791 10.5113 27.1548 10.5113 27.6344C10.5275 27.9982 10.3329 28.3124 10.0571 28.4778C9.92736 28.5439 9.76517 28.5935 9.60297 28.5935ZM38.7339 26.8737C38.7501 27.3533 38.4095 27.7667 37.9553 27.8328C37.9067 27.8494 37.8743 27.8494 37.8256 27.8494C37.3066 27.8659 36.8686 27.4525 36.8686 26.9233C36.8524 26.3941 37.2579 25.9476 37.7769 25.9476C38.004 25.9476 38.2149 26.0137 38.3771 26.146C38.5879 26.3114 38.7177 26.576 38.7339 26.8737ZM42.3347 10.5515C42.1725 10.8326 41.8806 11.0311 41.54 11.0476C41.0209 11.0642 40.583 10.6507 40.583 10.1215C40.583 9.98924 40.5992 9.87348 40.6479 9.75772C40.7776 9.39391 41.102 9.14585 41.5075 9.12931C42.0265 9.11277 42.4483 9.5262 42.4645 10.0554C42.4645 10.2373 42.4158 10.4027 42.3347 10.5515Z" fill="url(#paint0_linear_147_210)"/>
<defs>
<linearGradient id="paint0_linear_147_210" x1="0.291903" y1="14.956" x2="43.1049" y2="14.956" gradientUnits="userSpaceOnUse">
<stop stop-color="#9992B9"/>
<stop offset="1" stop-color="#645E7C"/>
</linearGradient>
</defs>
</svg>
