<svg  viewBox="0 0 53 36" fill="none" xmlns="http://www.w3.org/2000/svg">
<path d="M49.7506 9.38745C48.2714 9.42714 47.1035 10.6773 47.1425 12.1855C47.1619 12.7809 47.3566 13.3365 47.6874 13.7731C47.4928 14.2891 47.2398 14.9042 46.9284 15.5591C44.9625 16.4521 42.7631 17.1268 40.5247 17.623L37.8971 15.6186C37.936 15.4797 37.936 15.321 37.936 15.1821C37.9166 14.1303 37.0602 13.2968 36.0091 13.3167C34.9775 13.3365 34.1601 14.2295 34.1795 15.2813C34.199 16.3331 35.0749 17.1665 36.1064 17.1467C36.3984 17.1467 36.6514 17.0673 36.885 16.9482L38.3643 18.0794C32.7392 19.0716 27.0947 19.1311 23.9999 19.0518C23.5522 18.1389 22.618 17.5039 21.528 17.5436C20.0487 17.5833 18.8809 18.8335 18.9198 20.3417C18.9588 21.8498 20.185 23.0405 21.6642 23.0008C22.5791 22.981 23.3965 22.465 23.8442 21.7308C25.0315 21.7705 26.5691 21.7903 28.3598 21.7308C29.6055 21.6911 30.968 21.6316 32.4083 21.5125L30.3841 23.7351C30.2478 23.6954 30.0921 23.6954 29.9559 23.6954C28.9243 23.7152 28.1068 24.6082 28.1262 25.66C28.1457 26.7118 29.0216 27.5452 30.0532 27.5254C31.0848 27.5056 31.9022 26.6125 31.8828 25.5608C31.8828 25.283 31.8049 25.0051 31.6881 24.767L34.8608 21.2744C38.0918 20.9172 41.5563 20.2821 44.7484 19.2502C43.1913 21.4331 41.0113 23.7152 37.9555 25.5806C31.9022 29.2717 24.4476 29.5495 18.5111 26.2553C17.1681 25.5211 15.9808 24.6479 14.9492 23.7152L11.4068 19.4288C9.24629 15.956 8.35095 12.4038 8.0006 10.3995C8.9738 10.6972 10.5893 11.1536 12.6719 11.61C13.5089 11.7886 14.4431 11.9871 15.4358 12.1458C19.0561 12.7809 23.5717 13.277 28.4766 13.1381C30.6955 13.0785 32.9922 12.8999 35.3279 12.5229C36.2232 12.384 37.1186 12.2252 38.0139 12.0268C40.0965 11.5902 42.1792 10.9949 44.2618 10.2209L44.6511 10.082L47.8626 5.45822C47.9599 5.45822 48.0573 5.45822 48.1351 5.45822C49.6144 5.41854 50.7822 4.16832 50.7433 2.66014C50.7043 1.15195 49.4781 -0.0387251 47.9989 0.000964088C46.5196 0.0406533 45.3518 1.29086 45.3907 2.79905C45.4102 3.21579 45.5075 3.61268 45.6827 3.96988L42.9967 7.85942C40.9529 8.59367 38.8703 9.14932 36.8071 9.54621L34.744 5.31931C35.1332 4.8232 35.3474 4.20801 35.3474 3.5333C35.3084 2.02511 34.0822 0.834435 32.6029 0.874124C31.1237 0.913814 29.9559 2.16402 29.9948 3.67221C30.0337 5.02164 31.0264 6.13294 32.311 6.31154L34.1017 10.0026C27.7954 10.856 21.7421 10.3995 17.0318 9.66527L19.2118 6.25201C19.2702 6.25201 19.3091 6.25201 19.3675 6.25201C20.8468 6.21232 22.0146 4.96211 21.9757 3.45392C21.9367 1.94573 20.7105 0.755058 19.2313 0.794747C17.752 0.834437 16.5842 2.08465 16.6231 3.59283C16.6426 4.04926 16.7593 4.48584 16.9734 4.88273L14.229 9.16916C11.0759 8.55398 8.85701 7.87926 8.07845 7.64113L5.17834 4.40646C5.29512 4.08894 5.35351 3.73175 5.35351 3.37454C5.31458 1.86635 4.08836 0.675678 2.6091 0.715367C1.12985 0.755056 -0.0379822 2.00526 0.000945593 3.51345C0.0398734 5.02164 1.2661 6.21232 2.74535 6.17263C2.90106 6.17263 3.03731 6.15278 3.17356 6.13294L5.64546 8.89134L5.15887 8.91118C5.17833 9.20885 5.43137 12.9793 7.31937 17.3848L5.68439 16.5513C5.58708 15.1027 4.38032 13.9716 2.93999 14.0112C1.46074 14.0509 0.2929 15.3011 0.331828 16.8093C0.370756 18.3175 1.59699 19.5082 3.07624 19.4685C3.62123 19.4487 4.12729 19.2701 4.55549 18.9724L9.53824 21.5125C11.3095 24.1717 13.7814 26.7515 17.2654 28.6565C18.1024 29.1328 18.9782 29.5297 19.8736 29.8671C17.1097 30.3433 14.9492 30.9585 13.4505 31.4546C12.9444 30.8791 12.2048 30.5021 11.3873 30.5418C9.90806 30.5815 8.74023 31.8317 8.77916 33.3399C8.81808 34.848 10.0443 36.0387 11.5236 35.999C12.6914 35.9593 13.6646 35.1854 13.9955 34.1138C17.9661 32.7842 28.4571 30.1449 42.802 33.32C43.1913 34.3916 44.2034 35.1259 45.3713 35.106C46.8505 35.0663 48.0183 33.8161 47.9794 32.3079C47.9405 30.7998 46.7143 29.6091 45.235 29.6488C44.4175 29.6686 43.6779 30.0655 43.2108 30.6807C40.7583 30.1449 38.4226 29.7678 36.2232 29.5099C37.2743 29.0733 38.3059 28.5375 39.2985 27.9421C45.8773 23.9335 48.8358 18.2381 50.0815 14.9241C51.444 14.7653 52.495 13.5747 52.4561 12.1458C52.4561 10.5384 51.2299 9.34776 49.7506 9.38745ZM36.048 14.4081C36.1064 14.4081 36.1843 14.4081 36.2427 14.428C36.3205 14.4478 36.3984 14.4677 36.4763 14.5074C36.5346 14.547 36.5736 14.5669 36.6125 14.6264C36.7682 14.7653 36.8461 14.9638 36.8655 15.1821C36.885 15.6187 36.5346 15.9957 36.087 16.0155C35.7756 16.0155 35.5225 15.8568 35.3863 15.5988C35.3279 15.4996 35.289 15.3607 35.289 15.2218C35.2695 14.7852 35.6198 14.4081 36.048 14.4081ZM20.4964 20.2623C20.477 19.6471 20.9441 19.1113 21.5669 19.0914C21.5864 19.0914 21.5864 19.0914 21.6058 19.0914C22.2287 19.0716 22.7348 19.5677 22.7542 20.2027C22.7737 20.8378 22.2871 21.3537 21.6642 21.3736C21.5669 21.3736 21.4891 21.3736 21.4112 21.3537C20.9051 21.2545 20.5159 20.8179 20.4964 20.2623ZM30.0532 26.3943C29.625 26.4141 29.2552 26.0569 29.2357 25.6005C29.2357 25.4417 29.2746 25.3028 29.333 25.1837C29.4693 24.9456 29.7028 24.7868 29.9948 24.7868C30.423 24.767 30.7928 25.1242 30.8123 25.5806C30.8123 25.6402 30.8123 25.6997 30.7928 25.7592C30.7344 26.0966 30.423 26.3744 30.0532 26.3943ZM48.0573 1.56868C48.6801 1.54884 49.1862 2.04496 49.2056 2.69983V2.71967C49.2056 3.33485 48.719 3.85081 48.1157 3.87066C47.4928 3.8905 46.9673 3.39439 46.9673 2.75936C46.9478 2.2434 47.2787 1.80682 47.7264 1.64806C47.8237 1.60837 47.9405 1.56868 48.0573 1.56868ZM31.7076 4.12863C31.6297 3.96988 31.5714 3.81112 31.5714 3.61267C31.5519 2.97765 32.0385 2.44185 32.6613 2.44185C33.1674 2.422 33.5956 2.75936 33.7513 3.21578C33.7902 3.31501 33.8097 3.43408 33.8097 3.55314C33.8292 4.18817 33.3426 4.70413 32.7197 4.72397C32.2721 4.74382 31.9022 4.48584 31.7076 4.12863ZM19.2897 2.34262C19.9125 2.32278 20.4186 2.81889 20.438 3.47377C20.438 3.49361 20.438 3.51345 20.438 3.5333C20.4186 4.12863 19.9514 4.62475 19.348 4.6446C18.7252 4.66444 18.1997 4.16832 18.1997 3.5333C18.1802 3.05703 18.4527 2.66014 18.842 2.46169C18.9782 2.38231 19.1339 2.34262 19.2897 2.34262ZM2.72588 4.54537C2.21982 4.56522 1.79162 4.22786 1.63591 3.77143C1.59698 3.67221 1.57752 3.55314 1.57752 3.43407C1.55806 2.79905 2.04465 2.26325 2.66749 2.26325C2.84267 2.26325 3.01784 2.30293 3.15409 2.36247C3.54337 2.54107 3.7964 2.91812 3.81587 3.37454C3.83533 3.98973 3.34873 4.52553 2.72588 4.54537ZM1.90841 16.6903C1.88895 16.0552 2.37554 15.5194 2.99838 15.5194C3.19302 15.5194 3.3682 15.5591 3.52391 15.6385C3.87426 15.8171 4.12729 16.1941 4.14676 16.6307C4.16622 17.2657 3.67962 17.7817 3.05677 17.8016C2.86213 17.8016 2.68696 17.7619 2.53124 17.6825C2.18089 17.5039 1.92787 17.1268 1.90841 16.6903ZM11.5236 34.3122C10.9007 34.3321 10.3752 33.836 10.3752 33.2009C10.3557 32.5659 10.8423 32.0301 11.4652 32.0301C11.543 32.0301 11.6014 32.0301 11.6793 32.05C12.2048 32.1492 12.6135 32.5858 12.6135 33.1613C12.633 33.5978 12.3994 33.9749 12.0685 34.1733C11.9128 34.2527 11.7182 34.3122 11.5236 34.3122ZM46.4807 32.2484C46.5002 32.8239 46.0914 33.32 45.5464 33.3994C45.488 33.4192 45.4491 33.4192 45.3907 33.4192C44.7679 33.4391 44.2423 32.943 44.2423 32.3079C44.2229 31.6729 44.7095 31.1371 45.3323 31.1371C45.6048 31.1371 45.8578 31.2165 46.0525 31.3752C46.3055 31.5737 46.4612 31.8912 46.4807 32.2484ZM50.8017 12.6618C50.607 12.9992 50.2567 13.2373 49.8479 13.2571C49.2251 13.277 48.6996 12.7809 48.6996 12.1458C48.6996 11.9871 48.719 11.8482 48.7774 11.7093C48.9331 11.2727 49.3224 10.975 49.809 10.9552C50.4319 10.9353 50.9379 11.4314 50.9574 12.0665C50.9574 12.2848 50.899 12.4832 50.8017 12.6618Z" fill="url(#paint0_linear_2_56)"/>
<defs>
<linearGradient id="paint0_linear_2_56" x1="0.350283" y1="17.9472" x2="51.7259" y2="17.9472" gradientUnits="userSpaceOnUse">
<stop stop-color="#3ADFCB"/>
<stop offset="0.3883" stop-color="#219CFB"/>
<stop offset="0.7067" stop-color="#861AF0"/>
<stop offset="1" stop-color="#D00683"/>
</linearGradient>
</defs>
</svg>
