<svg width="30" height="28" viewBox="0 0 30 28" fill="none" xmlns="http://www.w3.org/2000/svg">
<g clip-path="url(#clip0_1658_3591)">
<path d="M29.5068 1L17.8008 9.694L19.9658 4.564L29.5068 1Z" fill="#E2761B" stroke="#E2761B" stroke-linecap="round" stroke-linejoin="round"/>
<path d="M2.48307 1L14.0951 9.777L12.0361 4.565L2.48307 1ZM25.2941 21.153L22.1771 25.929L28.8471 27.765L30.7651 21.259L25.2951 21.153H25.2941ZM1.24707 21.259L3.15307 27.765L9.82307 25.929L6.70607 21.153L1.24707 21.259Z" fill="#E4761B" stroke="#E4761B" stroke-linecap="round" stroke-linejoin="round"/>
<path d="M9.44784 13.082L7.58984 15.893L14.2138 16.188L13.9788 9.07L9.44884 13.082H9.44784ZM22.5428 13.083L17.9548 8.989L17.8018 16.189L24.4128 15.895L22.5428 13.083ZM9.82284 25.93L13.7998 23.988L10.3638 21.306L9.82384 25.929L9.82284 25.93ZM18.1888 23.988L22.1768 25.929L21.6238 21.306L18.1888 23.988Z" fill="#E4761B" stroke="#E4761B" stroke-linecap="round" stroke-linejoin="round"/>
<path d="M22.1748 25.928L18.1858 23.988L18.5038 26.588L18.4688 27.681L22.1748 25.928ZM9.82082 25.928L13.5268 27.681L13.5038 26.587L13.7978 23.987L9.81982 25.93L9.82082 25.928Z" fill="#D7C1B3" stroke="#D7C1B3" stroke-linecap="round" stroke-linejoin="round"/>
<path d="M13.588 19.59L10.271 18.613L12.612 17.542L13.588 19.589V19.59ZM18.4 19.59L19.377 17.542L21.73 18.612L18.4 19.589V19.59Z" fill="#233447" stroke="#233447" stroke-linecap="round" stroke-linejoin="round"/>
<path d="M9.82308 25.929L10.3871 21.152L6.70508 21.258L9.82308 25.928V25.929ZM21.6111 21.152L22.1761 25.929L25.2941 21.259L21.6111 21.152ZM24.4121 15.894L17.8001 16.188L18.4121 19.588L19.3881 17.541L21.7411 18.611L24.4111 15.894H24.4121ZM10.2701 18.611L12.6231 17.541L13.5881 19.588L14.2111 16.188L7.58808 15.894L10.2701 18.611Z" fill="#CD6116" stroke="#CD6116" stroke-linecap="round" stroke-linejoin="round"/>
<path d="M7.58691 15.894L10.3639 21.305L10.2699 18.611L7.58691 15.894ZM21.7399 18.611L21.6229 21.305L24.4109 15.894L21.7409 18.611H21.7399ZM14.2109 16.188L13.5879 19.588L14.3639 23.6L14.5409 18.317L14.2109 16.188ZM17.7979 16.188L17.4809 18.306L17.6209 23.6L18.4099 19.588L17.7979 16.188Z" fill="#E4751F" stroke="#E4751F" stroke-linecap="round" stroke-linejoin="round"/>
<path d="M18.413 19.589L17.625 23.601L18.189 23.989L21.625 21.306L21.742 18.612L18.412 19.589H18.413ZM10.27 18.612L10.365 21.307L13.8 23.989L14.365 23.601L13.588 19.589L10.271 18.612H10.27Z" fill="#F6851B" stroke="#F6851B" stroke-linecap="round" stroke-linejoin="round"/>
<path d="M18.4702 27.683L18.5052 26.588L18.2112 26.33H13.7762L13.5052 26.589L13.5282 27.683L9.82324 25.93L11.1172 26.988L13.7402 28.812H18.2462L20.8822 26.988L22.1762 25.93L18.4702 27.683Z" fill="#C0AD9E" stroke="#C0AD9E" stroke-linecap="round" stroke-linejoin="round"/>
<path d="M18.1898 23.989L17.6248 23.601H14.3658L13.8008 23.989L13.5068 26.589L13.7768 26.33H18.2128L18.5068 26.589L18.1898 23.989Z" fill="#161616" stroke="#161616" stroke-linecap="round" stroke-linejoin="round"/>
<path d="M30 10.259L31 5.459L29.506 1L18.188 9.4L22.541 13.082L28.694 14.882L30.059 13.294L29.471 12.871L30.411 12.011L29.682 11.447L30.624 10.73L30 10.259ZM1 5.459L2 10.259L1.365 10.729L2.305 11.447L1.588 12.012L2.529 12.871L1.941 13.294L3.294 14.883L9.447 13.083L13.8 9.4L2.482 1L1 5.459Z" fill="#763D16" stroke="#763D16" stroke-linecap="round" stroke-linejoin="round"/>
<path d="M28.6951 14.883L22.5411 13.083L24.4121 15.895L21.6241 21.307L25.2941 21.26H30.7651L28.6951 14.883ZM9.44707 13.083L3.29407 14.883L1.24707 21.26H6.70607L10.3651 21.307L7.58807 15.895L9.44707 13.083ZM17.8001 16.189L18.1901 9.4L19.9771 4.565H12.0371L13.8001 9.4L14.2121 16.189L14.3521 18.329L14.3651 23.6H17.6241L17.6471 18.33L17.8001 16.189Z" fill="#F6851B" stroke="#F6851B" stroke-linecap="round" stroke-linejoin="round"/>
</g>
<defs>
<clipPath id="clip0_1658_3591">
<rect width="30" height="28" fill="white"/>
</clipPath>
</defs>
</svg>
