<svg viewBox="0 0 22 17" fill="none" xmlns="http://www.w3.org/2000/svg">
<path d="M21.3999 2.0496C20.6343 2.3896 19.8119 2.6184 18.9487 2.7216C19.8303 2.1936 20.5063 1.3576 20.8247 0.360798C20.0007 0.849599 19.0871 1.2048 18.1143 1.3968C17.3359 0.567198 16.2271 0.0487976 14.9999 0.0487976C12.6431 0.0487976 10.7327 1.96 10.7327 4.316C10.7327 4.6504 10.7711 4.9768 10.8431 5.288C7.29672 5.1104 4.15272 3.4112 2.04712 0.828798C1.68072 1.4592 1.47032 2.192 1.47032 2.9752C1.47032 4.4552 2.22312 5.7616 3.36792 6.5264C2.66872 6.504 2.01032 6.312 1.43512 5.9928C1.43512 6.0112 1.43512 6.028 1.43512 6.0464C1.43512 8.1144 2.90552 9.83921 4.85832 10.2304C4.50072 10.328 4.12312 10.38 3.73352 10.38C3.45912 10.38 3.19112 10.3528 2.93112 10.304C3.47432 11.9992 5.05032 13.2336 6.91752 13.268C5.45752 14.4128 3.61752 15.0952 1.61752 15.0952C1.27352 15.0952 0.933521 15.0752 0.599121 15.0352C2.48792 16.2456 4.73032 16.952 7.14072 16.952C14.9903 16.952 19.2815 10.4496 19.2815 4.8104C19.2815 4.6256 19.2775 4.4416 19.2695 4.2584C20.1039 3.656 20.8279 2.9048 21.3999 2.0496Z" fill="#219CFB"/>
</svg>
