<svg viewBox="0 0 16 16" fill="none" xmlns="http://www.w3.org/2000/svg">
<path fill-rule="evenodd" clip-rule="evenodd" d="M11.7621 1.88375L10.3457 2.33693L9.66464 1.01496C8.96744 -0.338319 7.03256 -0.338319 6.33536 1.01496L5.65428 2.33693L4.23791 1.88375C2.788 1.41984 1.41984 2.788 1.88375 4.23791L2.33693 5.65428L1.01496 6.33536C-0.338319 7.03256 -0.338319 8.96744 1.01496 9.66464L2.33693 10.3457L1.88375 11.7621C1.41984 13.212 2.788 14.5802 4.23791 14.1163L5.65428 13.6631L6.33536 14.985C7.03256 16.3383 8.96744 16.3383 9.66464 14.985L10.3457 13.6631L11.7621 14.1163C13.212 14.5802 14.5802 13.212 14.1163 11.7621L13.6631 10.3457L14.985 9.66464C16.3383 8.96744 16.3383 7.03256 14.985 6.33536L13.6631 5.65428L14.1163 4.23791C14.5802 2.788 13.212 1.41984 11.7621 1.88375ZM4.53149 9.08566L5.46854 7.91435L7.37481 9.43937L10.408 5.53955L11.592 6.46046L7.62522 11.5606L4.53149 9.08566Z" fill="#219CFB"/>
</svg>
