<?xml version="1.0" standalone="no"?>
<!DOCTYPE svg PUBLIC "-//W3C//DTD SVG 20010904//EN"
 "http://www.w3.org/TR/2001/REC-SVG-20010904/DTD/svg10.dtd">
<svg version="1.0" xmlns="http://www.w3.org/2000/svg"
 width="848.000000pt" height="848.000000pt" viewBox="0 0 848.000000 848.000000"
 preserveAspectRatio="xMidYMid meet">
<metadata>
Created by potrace 1.14, written by Peter Selinger 2001-2017
</metadata>
<g transform="translate(0.000000,848.000000) scale(0.100000,-0.100000)"
fill="#000000" stroke="none">
<path d="M7567 7101 c-147 -48 -250 -160 -291 -314 -16 -57 -14 -184 3 -215 6
-12 10 -22 7 -22 -3 0 1 -15 9 -33 13 -31 12 -34 -40 -112 -30 -44 -58 -84
-63 -90 -12 -14 -155 -222 -167 -243 -5 -9 -12 -19 -15 -22 -6 -6 -28 -38 -88
-126 -41 -60 -44 -62 -130 -91 -48 -17 -127 -43 -177 -57 -49 -15 -97 -30
-105 -33 -8 -3 -19 -7 -25 -9 -5 -1 -53 -14 -105 -29 -52 -14 -104 -28 -115
-29 -11 -2 -51 -11 -90 -21 -38 -9 -119 -27 -178 -40 l-108 -23 -90 187 c-50
102 -125 255 -166 339 l-74 152 21 30 c90 126 98 309 19 460 -45 85 -168 184
-260 207 -43 10 -194 11 -207 0 -7 -5 -15 -7 -18 -4 -8 8 -117 -47 -151 -76
-73 -62 -116 -127 -144 -217 -60 -194 26 -408 202 -507 30 -17 68 -34 84 -38
17 -5 33 -9 38 -10 4 -2 11 -3 17 -4 5 0 39 -61 74 -133 35 -73 99 -206 143
-295 44 -90 75 -163 69 -164 -6 0 -20 -2 -31 -4 -29 -6 -111 -15 -177 -20 -31
-2 -69 -7 -85 -9 -15 -3 -68 -8 -118 -12 -49 -3 -106 -7 -125 -9 -210 -22
-967 -22 -1180 0 -19 1 -82 6 -140 9 -58 3 -114 8 -125 10 -11 2 -58 7 -103
10 -96 8 -162 14 -212 22 -19 3 -51 7 -70 9 -46 5 -119 15 -150 20 -14 2 -64
9 -112 15 -49 7 -88 15 -88 19 0 9 31 54 43 62 5 3 8 8 6 10 -2 4 28 52 126
204 28 44 71 112 95 150 24 39 47 72 50 75 4 3 9 12 12 21 4 9 19 16 35 17 61
3 149 29 203 60 95 54 185 178 206 282 11 54 7 167 -7 218 -73 264 -380 393
-615 260 -190 -107 -269 -328 -193 -542 l21 -62 -102 -160 c-57 -87 -108 -168
-114 -179 -7 -11 -29 -47 -51 -80 -21 -33 -68 -105 -103 -160 -36 -55 -65
-101 -66 -102 -1 -1 -28 5 -61 12 -33 8 -72 16 -88 19 -15 3 -35 7 -45 10 -9
3 -34 7 -56 11 -21 3 -42 7 -46 10 -4 3 -25 7 -46 11 -22 3 -47 10 -57 15 -9
5 -17 8 -17 5 0 -3 -20 1 -45 8 -25 8 -45 13 -45 11 0 -2 -21 4 -48 12 -26 8
-58 17 -72 19 -14 3 -65 17 -115 31 -49 14 -97 26 -105 28 -8 2 -35 11 -59 19
-24 9 -52 16 -62 16 -11 0 -19 3 -19 8 0 4 -15 23 -33 42 -62 66 -267 293
-332 367 -16 19 -45 51 -63 71 -18 20 -30 43 -27 51 57 180 -5 375 -158 496
-79 64 -223 94 -340 71 -60 -11 -154 -64 -205 -115 -87 -87 -130 -192 -130
-313 1 -245 182 -428 426 -433 74 -1 86 -4 106 -26 43 -47 132 -146 191 -213
33 -37 85 -95 117 -129 57 -62 59 -80 10 -71 l-24 5 6 -78 c5 -78 11 -127 23
-193 3 -19 7 -45 9 -58 2 -18 15 -83 29 -147 1 -5 5 -28 10 -50 13 -70 64
-267 91 -355 33 -110 33 -109 34 -115 1 -3 8 -21 16 -42 9 -20 17 -44 19 -52
4 -16 43 -119 83 -218 l21 -52 -128 64 -128 64 -11 53 c-10 50 -35 112 -66
166 -36 62 -133 137 -216 168 -89 32 -242 23 -321 -18 -303 -159 -331 -570
-52 -760 128 -88 271 -95 429 -24 l61 27 119 -60 c65 -34 124 -65 131 -71 7
-5 16 -10 20 -10 9 0 95 -42 103 -50 3 -3 97 -52 210 -109 l205 -103 50 -71
c302 -427 657 -759 1075 -1006 58 -34 112 -66 120 -71 44 -26 230 -115 310
-149 97 -41 98 -43 10 -56 -37 -6 -306 -62 -385 -81 -11 -3 -29 -7 -40 -9 -11
-3 -78 -21 -150 -41 -71 -19 -137 -37 -145 -39 -8 -2 -59 -17 -112 -34 -93
-30 -99 -31 -123 -15 -14 9 -25 19 -25 23 0 4 -24 22 -54 40 -126 76 -278 85
-406 23 -137 -67 -234 -213 -244 -371 -2 -25 9 -118 18 -159 9 -42 61 -126
106 -172 117 -120 277 -158 434 -106 43 15 84 32 93 39 60 46 134 131 159 181
l30 59 84 28 c88 28 161 49 170 48 3 0 19 5 35 11 31 12 54 19 90 25 11 2 45
11 75 19 49 14 253 60 320 72 14 3 57 11 97 19 39 8 89 17 110 21 21 3 49 7
63 10 74 12 163 26 195 29 11 2 40 5 65 9 25 3 59 8 75 10 50 7 158 19 190 21
17 2 64 6 105 9 41 4 95 9 120 11 227 20 921 27 1155 12 296 -19 332 -22 520
-43 33 -3 74 -8 90 -10 17 -2 55 -6 85 -9 30 -4 66 -8 80 -11 14 -2 52 -7 85
-10 33 -3 63 -8 66 -10 4 -2 24 -6 45 -9 22 -3 84 -13 139 -21 55 -9 109 -18
120 -19 11 -2 41 -8 66 -14 25 -6 65 -13 88 -16 24 -3 47 -7 51 -10 4 -3 23
-7 41 -10 39 -5 73 -12 97 -19 9 -3 30 -7 46 -10 16 -3 29 -6 31 -8 1 -2 15
-27 31 -57 95 -178 321 -271 504 -206 261 92 371 382 240 632 -31 61 -115 139
-184 173 -72 35 -130 48 -210 44 -62 -3 -166 -31 -166 -45 0 -5 -4 -8 -9 -6
-13 3 -47 -21 -99 -71 -25 -23 -45 -42 -46 -42 -1 0 -25 7 -54 14 -29 8 -55
14 -57 14 -3 0 -20 4 -38 8 -17 4 -41 8 -52 9 -11 1 -31 4 -45 8 -40 9 -135
27 -166 32 -55 9 -89 15 -114 20 -14 3 -42 8 -63 10 -21 2 -63 9 -95 14 -31 6
-75 13 -97 16 -23 3 -50 7 -60 9 -11 2 -45 6 -75 10 -30 4 -71 9 -90 12 -19 3
-47 6 -62 7 -22 0 -25 3 -16 14 6 7 15 13 20 13 16 0 282 133 290 145 4 5 8 7
8 3 0 -14 333 196 459 290 57 43 243 192 280 226 70 63 291 283 337 336 27 31
66 76 88 100 21 25 64 79 95 120 31 41 61 80 67 87 7 7 43 59 80 115 38 57 71
105 74 108 3 3 19 28 35 55 17 28 34 58 40 67 68 113 205 378 205 398 0 6 5
10 12 10 6 0 9 3 6 6 -4 3 7 35 23 70 16 36 39 89 50 119 19 50 24 55 62 65
177 45 300 172 333 343 6 33 7 150 1 177 -22 95 -57 165 -110 222 -88 92 -171
130 -297 133 -47 1 -89 -1 -95 -4 -5 -3 -19 -7 -29 -8 -77 -12 -209 -117 -258
-206 -47 -84 -64 -210 -44 -317 9 -44 42 -119 63 -143 14 -15 15 -22 5 -37 -7
-11 -12 -24 -12 -29 0 -5 -8 -26 -17 -47 -9 -22 -17 -41 -18 -44 0 -3 -8 -21
-17 -40 -8 -19 -23 -52 -33 -73 -9 -22 -27 -42 -41 -47 -14 -6 -49 -20 -77
-33 -29 -13 -68 -29 -87 -36 -19 -8 -48 -19 -65 -26 -30 -13 -75 -28 -85 -30
-3 0 -25 -8 -50 -17 -46 -17 -233 -77 -260 -84 -8 -2 -85 -21 -170 -43 -85
-21 -167 -41 -181 -45 -27 -6 -41 3 -138 81 -18 16 -41 32 -50 37 -9 5 -18 12
-21 15 -3 3 -23 19 -45 35 -22 16 -47 36 -55 43 -8 7 -41 33 -73 57 l-58 44
-2 74 c-7 197 -178 330 -371 287 -31 -7 -61 -18 -67 -26 -6 -7 -16 -13 -21
-13 -18 0 -90 -85 -111 -130 -27 -61 -32 -174 -9 -237 26 -73 112 -155 187
-178 64 -20 159 -22 182 -4 7 6 13 8 13 4 0 -4 6 -2 14 4 11 9 38 -7 129 -76
64 -48 113 -91 109 -95 -4 -4 -27 -9 -52 -12 -25 -3 -54 -8 -65 -10 -11 -2
-56 -9 -100 -16 -44 -6 -93 -14 -110 -16 -16 -3 -43 -7 -60 -9 -42 -4 -144
-16 -180 -21 -82 -10 -164 -18 -202 -18 -24 -1 -43 -3 -43 -6 0 -3 -17 -5 -38
-6 -33 -1 -72 -4 -282 -20 -67 -5 -192 -11 -365 -18 -55 -2 -253 -5 -440 -5
l-339 -2 -18 23 c-10 13 -18 27 -18 31 0 14 -74 88 -116 117 -85 59 -247 91
-326 64 -13 -4 -27 -8 -33 -9 -14 -2 -47 -15 -65 -26 -8 -5 -26 -14 -40 -21
-33 -16 -116 -103 -146 -153 -46 -79 -66 -199 -49 -301 7 -46 53 -151 80 -183
99 -118 207 -170 352 -169 129 1 254 69 336 182 11 15 25 18 83 16 344 -8
1060 11 1262 35 38 4 36 -1 -19 -60 -85 -90 -183 -198 -229 -250 -35 -39 -37
-40 -105 -41 -116 -1 -213 -64 -266 -172 -33 -68 -33 -198 0 -262 26 -49 91
-118 131 -138 92 -45 197 -47 274 -4 59 33 135 115 137 147 0 2 6 20 14 39 19
45 19 132 1 184 -16 45 -22 33 80 145 22 23 80 87 129 142 50 55 99 109 110
121 11 12 55 60 98 106 l77 85 63 7 c34 4 73 9 87 11 14 1 51 6 84 9 32 3 61
8 65 11 4 2 30 6 57 9 48 5 154 21 204 31 14 3 50 9 80 15 30 5 65 11 76 14
12 2 38 7 58 10 19 3 57 11 83 17 60 13 82 18 113 24 14 2 72 16 130 31 58 14
113 27 123 29 9 2 21 6 25 9 5 3 22 7 38 10 24 5 229 63 281 81 10 3 10 0 0
-15 -6 -11 -15 -20 -19 -20 -5 0 -8 -6 -8 -14 0 -8 -3 -16 -8 -18 -4 -1 -32
-34 -62 -73 -128 -163 -326 -372 -459 -485 -30 -25 -59 -51 -66 -57 -57 -55
-292 -226 -425 -309 -148 -93 -422 -231 -540 -271 -25 -8 -56 -20 -70 -26 -14
-6 -27 -11 -30 -12 -3 0 -41 -13 -85 -27 -71 -24 -227 -66 -310 -84 -75 -16
-174 -33 -220 -39 -27 -3 -57 -8 -65 -10 -92 -24 -633 -24 -745 0 -11 2 -46 7
-78 10 -32 4 -68 9 -80 11 -29 6 -61 13 -89 18 -123 22 -353 92 -509 154 -78
31 -294 135 -339 163 -14 9 -54 33 -90 54 -78 46 -262 174 -307 213 -17 15
-44 37 -60 49 -68 54 -118 106 -210 223 -7 8 -52 63 -100 121 -48 58 -104 125
-123 149 -19 24 -47 58 -62 74 -90 103 -218 274 -218 291 0 2 -18 34 -40 70
-22 36 -37 65 -34 65 4 0 1 7 -6 15 -21 25 -133 269 -180 390 -23 61 -46 119
-50 130 -8 20 -52 150 -56 170 -2 6 -10 35 -19 65 -9 30 -18 62 -20 70 -2 8
-4 15 -5 15 -1 0 -3 9 -5 20 -2 11 -11 49 -20 85 -20 79 -32 135 -40 175 -3
17 -7 40 -10 53 -5 28 0 28 105 -4 71 -21 182 -52 250 -69 8 -2 17 -4 20 -5 3
-1 10 -3 15 -4 6 -1 28 -7 50 -13 22 -7 54 -14 70 -17 17 -3 45 -10 63 -15 17
-5 32 -8 32 -6 0 3 11 0 26 -5 14 -6 37 -12 52 -15 15 -3 36 -7 47 -9 45 -11
312 -65 343 -71 17 -3 47 -8 65 -11 17 -3 46 -7 62 -10 17 -3 39 -6 50 -8 11
-2 42 -7 69 -11 28 -3 52 -8 55 -10 3 -2 31 -6 61 -10 30 -3 69 -9 85 -11 43
-8 83 -13 145 -20 30 -3 58 -8 61 -9 3 -2 38 -7 77 -10 40 -3 80 -8 90 -10 9
-1 53 -6 97 -10 44 -3 98 -8 120 -11 230 -24 559 -37 910 -37 319 1 539 9 740
27 33 3 89 8 125 11 36 2 99 9 140 15 41 5 98 12 125 15 28 2 61 7 75 9 14 3
42 8 63 11 78 11 116 17 224 35 62 11 122 22 135 25 13 2 34 7 48 9 24 4 157
33 193 42 9 2 27 6 40 10 12 3 33 7 47 10 14 3 86 21 160 41 74 19 140 36 145
37 46 10 350 110 505 167 66 24 79 32 108 75 18 27 38 56 45 64 7 9 25 36 42
60 16 25 48 70 70 101 22 31 46 65 53 75 6 11 48 71 92 134 44 63 84 122 90
130 5 8 27 40 49 70 38 55 40 56 93 58 177 6 338 138 391 318 19 65 15 193 -8
259 -47 137 -161 245 -295 280 -71 19 -168 17 -233 -4z m177 -238 c4 -5 11 -8
14 -8 33 -2 100 -78 108 -122 3 -14 6 -28 7 -32 0 -3 -2 -26 -6 -51 -16 -92
-105 -159 -196 -146 -186 25 -213 285 -36 350 44 16 97 20 109 9z m-7224 -131
c105 -66 118 -213 26 -296 -115 -102 -300 -7 -291 150 5 77 55 144 123 164 37
11 111 2 142 -18z m2662 -15 c48 -26 84 -91 86 -157 5 -120 -129 -214 -243
-170 -115 44 -150 197 -67 288 65 71 143 85 224 39z m2114 -2 c170 -71 136
-326 -47 -349 -79 -9 -164 49 -188 129 -43 146 98 278 235 220z m2749 -1364
c60 -25 104 -90 107 -158 3 -82 -65 -171 -143 -189 -116 -27 -227 72 -215 190
14 130 133 205 251 157z m-2179 -579 c8 -9 19 -34 25 -54 32 -101 -95 -200
-181 -141 -41 28 -49 39 -58 80 -17 76 23 140 95 153 43 8 98 -10 119 -38z
m-5305 -154 c87 -51 121 -137 89 -233 -22 -68 -118 -123 -191 -110 -121 21
-189 158 -134 266 19 36 76 82 112 90 39 8 98 2 124 -13z m2969 -568 c116 -47
146 -218 53 -302 -49 -45 -128 -59 -188 -34 -65 28 -100 75 -110 149 -8 60 7
106 50 150 50 51 126 65 195 37z m1362 -937 c75 -72 30 -198 -75 -210 -79 -9
-137 45 -137 129 0 110 129 160 212 81z m2451 -996 c81 -46 115 -164 72 -248
-48 -92 -168 -123 -255 -65 -125 83 -96 282 48 326 33 11 106 4 135 -13z
m-5436 -138 c67 -21 120 -114 109 -189 -12 -90 -68 -145 -157 -156 -172 -20
-264 181 -143 311 47 50 108 61 191 34z"/>
</g>
</svg>
